<svg width="100" height="32" viewBox="0 0 100 32" fill="none" xmlns="http://www.w3.org/2000/svg">
  <path d="M50.0007 13.667C48.1674 13.667 46.6674 15.167 46.6674 17.0003C46.6674 18.8337 48.1674 20.3337 50.0007 20.3337C51.8341 20.3337 53.3341 18.8337 53.3341 17.0003C53.3341 15.167 51.8341 13.667 50.0007 13.667ZM50.0007 19.0003C48.9007 19.0003 48.0007 18.1003 48.0007 17.0003C48.0007 15.9003 48.9007 15.0003 50.0007 15.0003C51.1007 15.0003 52.0007 15.9003 52.0007 17.0003C52.0007 18.1003 51.1007 19.0003 50.0007 19.0003Z" fill="currentColor"/>
  <path d="M42.6674 15.667C40.8341 15.667 39.3341 17.167 39.3341 19.0003C39.3341 20.8337 40.8341 22.3337 42.6674 22.3337C44.5007 22.3337 46.0007 20.8337 46.0007 19.0003C46.0007 17.167 44.5007 15.667 42.6674 15.667ZM42.6674 21.0003C41.5674 21.0003 40.6674 20.1003 40.6674 19.0003C40.6674 17.9003 41.5674 17.0003 42.6674 17.0003C43.7674 17.0003 44.6674 17.9003 44.6674 19.0003C44.6674 20.1003 43.7674 21.0003 42.6674 21.0003Z" fill="currentColor"/>
  <path d="M57.3341 15.667C55.5007 15.667 54.0007 17.167 54.0007 19.0003C54.0007 20.8337 55.5007 22.3337 57.3341 22.3337C59.1674 22.3337 60.6674 20.8337 60.6674 19.0003C60.6674 17.167 59.1674 15.667 57.3341 15.667ZM57.3341 21.0003C56.2341 21.0003 55.3341 20.1003 55.3341 19.0003C55.3341 17.9003 56.2341 17.0003 57.3341 17.0003C58.4341 17.0003 59.3341 17.9003 59.3341 19.0003C59.3341 20.1003 58.4341 21.0003 57.3341 21.0003Z" fill="currentColor"/>
  <path d="M35.3341 17.667C33.5007 17.667 32.0007 19.167 32.0007 21.0003C32.0007 22.8337 33.5007 24.3337 35.3341 24.3337C37.1674 24.3337 38.6674 22.8337 38.6674 21.0003C38.6674 19.167 37.1674 17.667 35.3341 17.667ZM35.3341 23.0003C34.2341 23.0003 33.3341 22.1003 33.3341 21.0003C33.3341 19.9003 34.2341 19.0003 35.3341 19.0003C36.4341 19.0003 37.3341 19.9003 37.3341 21.0003C37.3341 22.1003 36.4341 23.0003 35.3341 23.0003Z" fill="currentColor"/>
  <path d="M64.6674 17.667C62.8341 17.667 61.3341 19.167 61.3341 21.0003C61.3341 22.8337 62.8341 24.3337 64.6674 24.3337C66.5007 24.3337 68.0007 22.8337 68.0007 21.0003C68.0007 19.167 66.5007 17.667 64.6674 17.667ZM64.6674 23.0003C63.5674 23.0003 62.6674 22.1003 62.6674 21.0003C62.6674 19.9003 63.5674 19.0003 64.6674 19.0003C65.7674 19.0003 66.6674 19.9003 66.6674 21.0003C66.6674 22.1003 65.7674 23.0003 64.6674 23.0003Z" fill="currentColor"/>
  <path d="M28.0007 19.667C26.1674 19.667 24.6674 21.167 24.6674 23.0003C24.6674 24.8337 26.1674 26.3337 28.0007 26.3337C29.8341 26.3337 31.3341 24.8337 31.3341 23.0003C31.3341 21.167 29.8341 19.667 28.0007 19.667ZM28.0007 25.0003C26.9007 25.0003 26.0007 24.1003 26.0007 23.0003C26.0007 21.9003 26.9007 21.0003 28.0007 21.0003C29.1007 21.0003 30.0007 21.9003 30.0007 23.0003C30.0007 24.1003 29.1007 25.0003 28.0007 25.0003Z" fill="currentColor"/>
  <path d="M72.0007 19.667C70.1674 19.667 68.6674 21.167 68.6674 23.0003C68.6674 24.8337 70.1674 26.3337 72.0007 26.3337C73.8341 26.3337 75.3341 24.8337 75.3341 23.0003C75.3341 21.167 73.8341 19.667 72.0007 19.667ZM72.0007 25.0003C70.9007 25.0003 70.0007 24.1003 70.0007 23.0003C70.0007 21.9003 70.9007 21.0003 72.0007 21.0003C73.1007 21.0003 74.0007 21.9003 74.0007 23.0003C74.0007 24.1003 73.1007 25.0003 72.0007 25.0003Z" fill="currentColor"/>
  <path d="M20.6674 21.667C18.8341 21.667 17.3341 23.167 17.3341 25.0003C17.3341 26.8337 18.8341 28.3337 20.6674 28.3337C22.5007 28.3337 24.0007 26.8337 24.0007 25.0003C24.0007 23.167 22.5007 21.667 20.6674 21.667ZM20.6674 27.0003C19.5674 27.0003 18.6674 26.1003 18.6674 25.0003C18.6674 23.9003 19.5674 23.0003 20.6674 23.0003C21.7674 23.0003 22.6674 23.9003 22.6674 25.0003C22.6674 26.1003 21.7674 27.0003 20.6674 27.0003Z" fill="currentColor"/>
  <path d="M79.3341 21.667C77.5007 21.667 76.0007 23.167 76.0007 25.0003C76.0007 26.8337 77.5007 28.3337 79.3341 28.3337C81.1674 28.3337 82.6674 26.8337 82.6674 25.0003C82.6674 23.167 81.1674 21.667 79.3341 21.667ZM79.3341 27.0003C78.2341 27.0003 77.3341 26.1003 77.3341 25.0003C77.3341 23.9003 78.2341 23.0003 79.3341 23.0003C80.4341 23.0003 81.3341 23.9003 81.3341 25.0003C81.3341 26.1003 80.4341 27.0003 79.3341 27.0003Z" fill="currentColor"/>
</svg> 