<svg width="100" height="32" viewBox="0 0 100 32" fill="none" xmlns="http://www.w3.org/2000/svg">
  <path d="M38.0844 13.8251H33.9338V23.9029H37.1157C38.4066 23.9029 39.4975 23.6951 40.3885 23.2796C41.2794 22.8641 41.9705 22.2407 42.4617 21.4095C42.9529 20.5783 43.1985 19.5549 43.1985 18.3393C43.1985 17.1444 42.9529 16.1418 42.4617 15.3313C41.9705 14.5209 41.2794 13.9183 40.3885 13.5235C39.4975 13.1246 38.4066 12.9251 37.1157 12.9251H32.9338V24.9029H38.0844C39.7661 24.9029 41.2057 24.6211 42.4033 24.0576C43.6009 23.494 44.5165 22.6628 45.1502 21.564C45.7838 20.4652 46.1007 19.1327 46.1007 17.5666C46.1007 16.0212 45.7838 14.7095 45.1502 13.6314C44.5165 12.5533 43.6009 11.7346 42.4033 11.1753C41.2057 10.6159 39.7661 10.3363 38.0844 10.3363H30.9338V27.4917H33.9338V13.8251Z" fill="currentColor"/>
  <path d="M54.834 27.8823C56.5364 27.8823 57.9753 27.4668 59.1506 26.6356C60.3259 25.8044 61.1635 24.6139 61.6634 23.0642L58.8904 22.2545C58.5151 23.2363 57.9815 23.9805 57.2904 24.4876C56.5993 24.9905 55.7792 25.2419 54.8298 25.2419C53.9597 25.2419 53.1854 25.0299 52.5069 24.6056C51.8284 24.1814 51.2989 23.5832 50.9194 22.811C50.5398 22.0389 50.35 21.1452 50.35 20.13V20.0468H61.9549V19.0651C61.9549 17.5405 61.6843 16.2161 61.1427 15.0922C60.6012 13.9683 59.8225 13.1079 58.8071 12.5111C57.7916 11.9143 56.5993 11.6159 55.2303 11.6159C53.8613 11.6159 52.6443 11.9267 51.5788 12.5485C50.5132 13.1702 49.6807 14.0514 49.0804 15.1919C48.4801 16.3325 48.18 17.6732 48.18 19.2144C48.18 20.7764 48.4843 22.1212 49.0929 23.2488C49.7015 24.3764 50.5523 25.2419 51.6469 25.8461C52.7415 26.4502 53.7153 27.0169 54.834 27.8823ZM54.9798 14.2131C55.7792 14.2131 56.4702 14.4002 57.0538 14.7745C57.6374 15.1488 58.0836 15.6684 58.3917 16.3325C58.6998 16.9967 58.8696 17.7613 58.8904 18.6259H50.4333C50.5189 17.7613 50.7479 16.9967 51.1191 16.3325C51.4903 15.6684 51.9698 15.1488 52.5576 14.7745C53.1454 14.4002 53.8155 14.2131 54.9798 14.2131Z" fill="currentColor"/>
  <path d="M69.4121 27.4917V20.13C69.4121 18.9645 69.6702 18.0501 70.1864 17.3859C70.7026 16.7218 71.4604 16.3896 72.4593 16.3896C73.3752 16.3896 74.0871 16.6701 74.5949 17.2301C75.1027 17.7904 75.3567 18.5925 75.3567 19.6373V27.4917H78.2505V19.0443C78.2505 17.1281 77.7798 15.6601 76.8389 14.6408C75.8979 13.6214 74.6226 13.1117 73.0119 13.1117C72.0797 13.1117 71.2513 13.3029 70.5268 13.6839C69.8023 14.0657 69.2395 14.5978 68.8391 15.2786H68.7141L68.3012 13.4009H65.7933V27.4917H69.4121Z" fill="currentColor"/>
  <path d="M87.6467 27.8823C89.0573 27.8823 90.2659 27.5755 91.2648 26.9589C92.2637 26.3423 92.9964 25.4487 93.4629 24.2749L90.69 23.4652C90.4444 24.0985 90.0648 24.5806 89.5528 24.9132C89.0407 25.2419 88.4196 25.4071 87.6883 25.4071C86.8598 25.4071 86.1563 25.1641 85.5769 24.6781C84.9975 24.1921 84.6429 23.4819 84.5157 22.5466H93.7127V21.3937C93.7127 19.9315 93.4379 18.6717 92.8877 17.6148C92.3374 16.5579 91.5714 15.7475 90.5892 15.1835C89.607 14.6195 88.4612 14.3369 87.1505 14.3369C85.8815 14.3369 84.7619 14.6444 83.7922 15.2619C82.8224 15.8785 82.0731 16.7346 81.5444 17.8293C81.0157 18.9241 80.7493 20.2023 80.7493 21.6645C80.7493 23.1683 81.0074 24.4673 81.5236 25.5621C82.0398 26.6568 82.7767 27.5088 83.7339 28.1171C84.6912 28.7254 86.0768 28.8823 87.6467 27.8823ZM87.2547 16.7218C88.0415 16.7218 88.6959 16.9507 89.2171 17.4076C89.7382 17.8644 90.0565 18.5286 90.1712 19.3972H84.5157C84.6721 18.5703 85.0142 17.9144 85.5436 17.4284C86.0723 16.9924 86.5927 16.7218 87.2547 16.7218Z" fill="currentColor"/>
  <path d="M17.5229 10.0001C15.4834 10.0001 13.7522 10.4156 12.3291 11.2468C10.906 12.078 9.83121 13.2685 9.10464 14.8182L11.8777 15.6279C12.253 14.6461 12.7866 13.9019 13.4777 13.3948C14.1688 12.8919 14.9889 12.6405 15.9383 12.6405C16.8084 12.6405 17.5827 12.8525 18.2612 13.2768C18.9397 13.701 19.4692 14.2992 19.8487 15.0714C20.2283 15.8435 20.4181 16.7372 20.4181 17.7524V17.8356H8.81317V18.8173C8.81317 20.3419 9.08376 21.6663 9.62533 22.7902C10.1669 23.9141 10.9456 24.7745 11.961 25.3713C12.9765 25.9681 14.1688 26.2665 15.5378 26.2665C16.9068 26.2665 18.1238 25.9557 19.1893 25.3339C20.2549 24.7122 21.0874 23.831 21.6877 22.6905C22.288 21.5499 22.5881 20.2092 22.5881 18.668C22.5881 17.106 22.2838 15.7612 21.6752 14.6336C21.0666 13.506 20.2158 12.6405 19.1212 12.0363C18.0266 11.4322 17.0528 10.8655 17.5229 10.0001ZM15.7883 23.6693C14.9889 23.6693 14.2979 23.4822 13.7143 23.1079C13.1307 22.7336 12.6845 22.214 12.3764 21.5499C12.0683 20.8857 11.8985 20.1211 11.8777 19.2565H20.3348C20.2492 20.1211 20.0202 20.8857 19.649 21.5499C19.2778 22.214 18.7983 22.7336 18.2105 23.1079C17.6227 23.4822 16.9526 23.6693 15.7883 23.6693Z" fill="currentColor"/>
</svg> 