<svg width="100" height="32" viewBox="0 0 100 32" fill="none" xmlns="http://www.w3.org/2000/svg">
  <path d="M15.2 15.2H8V8H15.2V15.2Z" fill="currentColor"/>
  <path d="M24 15.2H16.8V8H24V15.2Z" fill="currentColor"/>
  <path d="M15.2 24H8V16.8H15.2V24Z" fill="currentColor"/>
  <path d="M24 24H16.8V16.8H24V24Z" fill="currentColor"/>
  <path d="M35.3341 12.8H32.0008V23.2H35.3341V17.0667C35.3341 15.7333 36.4008 14.6667 37.7341 14.6667C39.0675 14.6667 40.1341 15.7333 40.1341 17.0667V23.2H43.4675V16.5333C43.4675 13.8667 41.3341 12.2667 38.9341 12.2667C37.6008 12.2667 36.2675 12.8 35.3341 13.8667V12.8Z" fill="currentColor"/>
  <path d="M54.1337 12.2667C51.8671 12.2667 49.867 13.3333 48.667 15.2L51.467 16.8C52.1337 15.7333 53.067 15.2 54.1337 15.2C55.467 15.2 56.5337 16.2667 56.5337 17.6V18.1333C55.867 17.6 54.667 17.3333 53.467 17.3333C50.9337 17.3333 48.9336 18.6667 48.9336 21.0667C48.9336 23.2 50.667 24.5333 52.8003 24.5333C54.1337 24.5333 55.467 23.7333 56.5337 22.6667V23.7333H59.867V17.6C59.867 14.4 57.467 12.2667 54.1337 12.2667ZM53.867 21.8667C52.8003 21.8667 52.0003 21.3333 52.0003 20.5333C52.0003 19.7333 52.8003 19.2 53.867 19.2C54.9337 19.2 55.7337 19.4667 56.5337 20V20.5333C55.7337 21.3333 54.9337 21.8667 53.867 21.8667Z" fill="currentColor"/>
  <path d="M69.0667 24.5333C72.4 24.5333 75.2 22.6667 76.4 19.7333L73.3333 18.6667C72.6667 20.2667 71.0667 21.3333 69.0667 21.3333C66.4 21.3333 64.4 19.4667 64.4 16.8C64.4 14.1333 66.4 12.2667 69.0667 12.2667C71.0667 12.2667 72.6667 13.3333 73.3333 14.9333L76.4 13.8667C75.2 10.9333 72.4 9.06667 69.0667 9.06667C64.6667 9.06667 61.0667 12.5333 61.0667 16.8C61.0667 21.0667 64.6667 24.5333 69.0667 24.5333Z" fill="currentColor"/>
  <path d="M84.9333 24.5333C88.2667 24.5333 91.0667 22.6667 92.2667 19.7333L89.2 18.6667C88.5333 20.2667 86.9333 21.3333 84.9333 21.3333C82.2667 21.3333 80.2667 19.4667 80.2667 16.8C80.2667 14.1333 82.2667 12.2667 84.9333 12.2667C86.9333 12.2667 88.5333 13.3333 89.2 14.9333L92.2667 13.8667C91.0667 10.9333 88.2667 9.06667 84.9333 9.06667C80.5333 9.06667 76.9333 12.5333 76.9333 16.8C76.9333 21.0667 80.5333 24.5333 84.9333 24.5333Z" fill="currentColor"/>
</svg> 